<mxfile host="65bd71144e">
    <diagram id="ZzrY9_B9jC9xOs_7Z7fI" name="Page-1">
        <mxGraphModel dx="3777" dy="2998" grid="1" gridSize="10" guides="1" tooltips="1" connect="1" arrows="1" fold="1" page="1" pageScale="1" pageWidth="850" pageHeight="1100" math="0" shadow="0">
            <root>
                <mxCell id="0"/>
                <mxCell id="1" parent="0"/>
                <mxCell id="KKc4-tbAbIuKgvvOoJ8D-1" value="" style="image;html=1;image=img/lib/clip_art/computers/Server_Rack_128x128.png" parent="1" vertex="1">
                    <mxGeometry x="-340" y="770" width="140" height="200" as="geometry"/>
                </mxCell>
                <mxCell id="rJqn0r7HXvhNdOzZmETf-32" style="edgeStyle=orthogonalEdgeStyle;rounded=0;orthogonalLoop=1;jettySize=auto;html=1;entryX=1;entryY=0.5;entryDx=0;entryDy=0;strokeWidth=5;" parent="1" source="KKc4-tbAbIuKgvvOoJ8D-4" target="rJqn0r7HXvhNdOzZmETf-4" edge="1">
                    <mxGeometry relative="1" as="geometry"/>
                </mxCell>
                <mxCell id="rJqn0r7HXvhNdOzZmETf-33" style="edgeStyle=orthogonalEdgeStyle;rounded=0;orthogonalLoop=1;jettySize=auto;html=1;entryX=1.003;entryY=0.614;entryDx=0;entryDy=0;entryPerimeter=0;strokeWidth=5;" parent="1" source="KKc4-tbAbIuKgvvOoJ8D-4" target="rJqn0r7HXvhNdOzZmETf-5" edge="1">
                    <mxGeometry relative="1" as="geometry">
                        <Array as="points">
                            <mxPoint x="-370" y="1525"/>
                        </Array>
                    </mxGeometry>
                </mxCell>
                <mxCell id="rJqn0r7HXvhNdOzZmETf-34" style="edgeStyle=orthogonalEdgeStyle;rounded=0;orthogonalLoop=1;jettySize=auto;html=1;entryX=1;entryY=0.5;entryDx=0;entryDy=0;strokeWidth=5;" parent="1" source="KKc4-tbAbIuKgvvOoJ8D-4" target="rJqn0r7HXvhNdOzZmETf-6" edge="1">
                    <mxGeometry relative="1" as="geometry">
                        <Array as="points">
                            <mxPoint x="-320" y="1615"/>
                        </Array>
                    </mxGeometry>
                </mxCell>
                <mxCell id="rJqn0r7HXvhNdOzZmETf-35" style="edgeStyle=orthogonalEdgeStyle;rounded=0;orthogonalLoop=1;jettySize=auto;html=1;entryX=1;entryY=0.5;entryDx=0;entryDy=0;strokeWidth=5;" parent="1" source="KKc4-tbAbIuKgvvOoJ8D-4" target="rJqn0r7HXvhNdOzZmETf-3" edge="1">
                    <mxGeometry relative="1" as="geometry">
                        <Array as="points">
                            <mxPoint x="-260" y="1715"/>
                        </Array>
                    </mxGeometry>
                </mxCell>
                <mxCell id="rJqn0r7HXvhNdOzZmETf-36" style="edgeStyle=orthogonalEdgeStyle;rounded=0;orthogonalLoop=1;jettySize=auto;html=1;entryX=1;entryY=0.5;entryDx=0;entryDy=0;strokeWidth=5;" parent="1" source="KKc4-tbAbIuKgvvOoJ8D-4" target="rJqn0r7HXvhNdOzZmETf-7" edge="1">
                    <mxGeometry relative="1" as="geometry">
                        <Array as="points">
                            <mxPoint x="-200" y="1815"/>
                        </Array>
                    </mxGeometry>
                </mxCell>
                <mxCell id="rJqn0r7HXvhNdOzZmETf-37" style="edgeStyle=orthogonalEdgeStyle;rounded=0;orthogonalLoop=1;jettySize=auto;html=1;entryX=1;entryY=0.5;entryDx=0;entryDy=0;strokeWidth=5;" parent="1" source="KKc4-tbAbIuKgvvOoJ8D-4" target="rJqn0r7HXvhNdOzZmETf-13" edge="1">
                    <mxGeometry relative="1" as="geometry">
                        <Array as="points">
                            <mxPoint x="-150" y="1915"/>
                        </Array>
                    </mxGeometry>
                </mxCell>
                <mxCell id="KKc4-tbAbIuKgvvOoJ8D-4" value="&lt;font style=&quot;font-size: 24px&quot;&gt;HARDWARE&lt;/font&gt;" style="rounded=0;whiteSpace=wrap;html=1;fillColor=#60a917;strokeColor=#2D7600;fontColor=#ffffff;shadow=1;fontStyle=1" parent="1" vertex="1">
                    <mxGeometry x="-390" y="1200" width="260" height="90" as="geometry"/>
                </mxCell>
                <mxCell id="rJqn0r7HXvhNdOzZmETf-23" style="edgeStyle=orthogonalEdgeStyle;rounded=0;orthogonalLoop=1;jettySize=auto;html=1;entryX=0;entryY=0.75;entryDx=0;entryDy=0;strokeWidth=5;" parent="1" source="KKc4-tbAbIuKgvvOoJ8D-5" target="rJqn0r7HXvhNdOzZmETf-16" edge="1">
                    <mxGeometry relative="1" as="geometry">
                        <Array as="points">
                            <mxPoint x="-10" y="1180"/>
                            <mxPoint x="-10" y="1568"/>
                        </Array>
                    </mxGeometry>
                </mxCell>
                <mxCell id="rJqn0r7HXvhNdOzZmETf-24" style="edgeStyle=orthogonalEdgeStyle;rounded=0;orthogonalLoop=1;jettySize=auto;html=1;entryX=0;entryY=0.5;entryDx=0;entryDy=0;strokeWidth=5;" parent="1" source="KKc4-tbAbIuKgvvOoJ8D-5" target="rJqn0r7HXvhNdOzZmETf-17" edge="1">
                    <mxGeometry relative="1" as="geometry">
                        <Array as="points">
                            <mxPoint x="40" y="1160"/>
                            <mxPoint x="40" y="1435"/>
                        </Array>
                    </mxGeometry>
                </mxCell>
                <mxCell id="rJqn0r7HXvhNdOzZmETf-25" style="edgeStyle=orthogonalEdgeStyle;rounded=0;orthogonalLoop=1;jettySize=auto;html=1;entryX=0;entryY=0.5;entryDx=0;entryDy=0;strokeWidth=5;" parent="1" source="KKc4-tbAbIuKgvvOoJ8D-5" target="rJqn0r7HXvhNdOzZmETf-19" edge="1">
                    <mxGeometry relative="1" as="geometry">
                        <Array as="points">
                            <mxPoint x="80" y="1130"/>
                            <mxPoint x="80" y="1205"/>
                        </Array>
                    </mxGeometry>
                </mxCell>
                <mxCell id="rJqn0r7HXvhNdOzZmETf-26" style="edgeStyle=orthogonalEdgeStyle;rounded=0;orthogonalLoop=1;jettySize=auto;html=1;exitX=1;exitY=0.25;exitDx=0;exitDy=0;strokeWidth=5;entryX=0;entryY=0.5;entryDx=0;entryDy=0;" parent="1" source="KKc4-tbAbIuKgvvOoJ8D-5" target="rJqn0r7HXvhNdOzZmETf-21" edge="1">
                    <mxGeometry relative="1" as="geometry">
                        <mxPoint x="410" y="1122.75" as="targetPoint"/>
                        <Array as="points">
                            <mxPoint x="-130" y="1090"/>
                            <mxPoint x="165" y="1090"/>
                            <mxPoint x="165" y="1080"/>
                            <mxPoint x="470" y="1080"/>
                        </Array>
                    </mxGeometry>
                </mxCell>
                <mxCell id="rJqn0r7HXvhNdOzZmETf-28" style="edgeStyle=orthogonalEdgeStyle;rounded=0;orthogonalLoop=1;jettySize=auto;html=1;entryX=0;entryY=0.5;entryDx=0;entryDy=0;strokeWidth=5;" parent="1" source="KKc4-tbAbIuKgvvOoJ8D-5" target="rJqn0r7HXvhNdOzZmETf-20" edge="1">
                    <mxGeometry relative="1" as="geometry">
                        <Array as="points">
                            <mxPoint x="165" y="1110"/>
                            <mxPoint x="165" y="1150"/>
                            <mxPoint x="440" y="1150"/>
                            <mxPoint x="440" y="1205"/>
                        </Array>
                    </mxGeometry>
                </mxCell>
                <mxCell id="rJqn0r7HXvhNdOzZmETf-29" style="edgeStyle=orthogonalEdgeStyle;rounded=0;orthogonalLoop=1;jettySize=auto;html=1;entryX=0;entryY=0.5;entryDx=0;entryDy=0;strokeWidth=5;" parent="1" source="KKc4-tbAbIuKgvvOoJ8D-5" target="rJqn0r7HXvhNdOzZmETf-18" edge="1">
                    <mxGeometry relative="1" as="geometry">
                        <Array as="points">
                            <mxPoint x="70" y="1145"/>
                            <mxPoint x="70" y="1325"/>
                        </Array>
                    </mxGeometry>
                </mxCell>
                <mxCell id="KKc4-tbAbIuKgvvOoJ8D-5" value="&lt;span style=&quot;font-size: 24px&quot;&gt;OPERATING SYSTEM&lt;/span&gt;" style="rounded=0;whiteSpace=wrap;html=1;fillColor=#0050ef;strokeColor=#001DBC;fontColor=#ffffff;fontStyle=1" parent="1" vertex="1">
                    <mxGeometry x="-390" y="1100" width="260" height="90" as="geometry"/>
                </mxCell>
                <mxCell id="KKc4-tbAbIuKgvvOoJ8D-6" value="&lt;font style=&quot;font-size: 24px&quot;&gt;APPLICATIONS&lt;/font&gt;" style="rounded=0;whiteSpace=wrap;html=1;fillColor=#d80073;strokeColor=#A50040;fontColor=#ffffff;fontStyle=1" parent="1" vertex="1">
                    <mxGeometry x="-390" y="1000" width="260" height="90" as="geometry"/>
                </mxCell>
                <mxCell id="KKc4-tbAbIuKgvvOoJ8D-13" value="&lt;span style=&quot;background-color: rgb(0 , 0 , 0)&quot;&gt;&lt;font color=&quot;#ffffff&quot;&gt;BARE METAL&lt;/font&gt;&lt;/span&gt;" style="text;html=1;strokeColor=none;fillColor=none;align=center;verticalAlign=middle;whiteSpace=wrap;rounded=0;fontSize=24;" parent="1" vertex="1">
                    <mxGeometry x="-360" y="700" width="180" height="50" as="geometry"/>
                </mxCell>
                <mxCell id="1fBsBW-F1X1UORex-bEd-3" value="&lt;font style=&quot;font-size: 30px;&quot;&gt;LINUX ARHITECTURE&lt;/font&gt;" style="text;html=1;strokeColor=none;fillColor=none;align=center;verticalAlign=middle;whiteSpace=wrap;rounded=0;shadow=1;labelBackgroundColor=#230AFF;fontColor=#FFFFFF;fontStyle=1" parent="1" vertex="1">
                    <mxGeometry x="-100" y="480" width="180" height="70" as="geometry"/>
                </mxCell>
                <mxCell id="rJqn0r7HXvhNdOzZmETf-2" value="" style="sketch=0;aspect=fixed;html=1;points=[];align=center;image;fontSize=12;image=img/lib/mscae/VM_Linux.svg;" parent="1" vertex="1">
                    <mxGeometry x="190" y="780" width="206.52" height="190" as="geometry"/>
                </mxCell>
                <mxCell id="rJqn0r7HXvhNdOzZmETf-3" value="&lt;font style=&quot;font-size: 24px&quot;&gt;MOTHERBOARD&lt;/font&gt;" style="rounded=0;whiteSpace=wrap;html=1;fillColor=#60a917;strokeColor=#2D7600;fontColor=#ffffff;shadow=1;fontStyle=1" parent="1" vertex="1">
                    <mxGeometry x="-730" y="1670" width="260" height="90" as="geometry"/>
                </mxCell>
                <mxCell id="rJqn0r7HXvhNdOzZmETf-4" value="&lt;font style=&quot;font-size: 24px&quot;&gt;CPU&lt;/font&gt;" style="rounded=0;whiteSpace=wrap;html=1;fillColor=#60a917;strokeColor=#2D7600;fontColor=#ffffff;shadow=1;fontStyle=1" parent="1" vertex="1">
                    <mxGeometry x="-730" y="1370" width="260" height="90" as="geometry"/>
                </mxCell>
                <mxCell id="rJqn0r7HXvhNdOzZmETf-5" value="&lt;font style=&quot;font-size: 24px&quot;&gt;RAM&lt;/font&gt;" style="rounded=0;whiteSpace=wrap;html=1;fillColor=#60a917;strokeColor=#2D7600;fontColor=#ffffff;shadow=1;fontStyle=1" parent="1" vertex="1">
                    <mxGeometry x="-730" y="1470" width="260" height="90" as="geometry"/>
                </mxCell>
                <mxCell id="rJqn0r7HXvhNdOzZmETf-6" value="&lt;font style=&quot;font-size: 24px&quot;&gt;STORAGE(HDD/SDD)&lt;/font&gt;" style="rounded=0;whiteSpace=wrap;html=1;fillColor=#60a917;strokeColor=#2D7600;fontColor=#ffffff;shadow=1;fontStyle=1" parent="1" vertex="1">
                    <mxGeometry x="-730" y="1570" width="260" height="90" as="geometry"/>
                </mxCell>
                <mxCell id="rJqn0r7HXvhNdOzZmETf-7" value="&lt;font style=&quot;font-size: 24px&quot;&gt;POWER UNIT&lt;/font&gt;" style="rounded=0;whiteSpace=wrap;html=1;fillColor=#60a917;strokeColor=#2D7600;fontColor=#ffffff;shadow=1;fontStyle=1" parent="1" vertex="1">
                    <mxGeometry x="-730" y="1770" width="260" height="90" as="geometry"/>
                </mxCell>
                <mxCell id="rJqn0r7HXvhNdOzZmETf-13" value="&lt;span style=&quot;font-size: 24px;&quot;&gt;NETWORK&lt;/span&gt;" style="rounded=0;whiteSpace=wrap;html=1;fillColor=#00FF00;strokeColor=#006EAF;fontColor=#000000;shadow=1;fontStyle=1" parent="1" vertex="1">
                    <mxGeometry x="-730" y="1870" width="260" height="90" as="geometry"/>
                </mxCell>
                <mxCell id="rJqn0r7HXvhNdOzZmETf-16" value="&lt;font style=&quot;font-size: 24px&quot;&gt;BOOTLOADER&lt;/font&gt;" style="rounded=0;whiteSpace=wrap;html=1;fillColor=#0050ef;strokeColor=#001DBC;fontColor=#ffffff;shadow=1;fontStyle=1" parent="1" vertex="1">
                    <mxGeometry x="305" y="1500" width="260" height="90" as="geometry"/>
                </mxCell>
                <mxCell id="rJqn0r7HXvhNdOzZmETf-17" value="&lt;font style=&quot;font-size: 24px&quot;&gt;KERNEL&lt;/font&gt;" style="rounded=0;whiteSpace=wrap;html=1;fillColor=#0050ef;strokeColor=#001DBC;fontColor=#ffffff;shadow=1;fontStyle=1" parent="1" vertex="1">
                    <mxGeometry x="305" y="1390" width="260" height="90" as="geometry"/>
                </mxCell>
                <mxCell id="rJqn0r7HXvhNdOzZmETf-18" value="&lt;font style=&quot;font-size: 24px&quot;&gt;DAEMONS&lt;/font&gt;" style="rounded=0;whiteSpace=wrap;html=1;fillColor=#0050ef;strokeColor=#001DBC;fontColor=#ffffff;shadow=1;fontStyle=1" parent="1" vertex="1">
                    <mxGeometry x="305" y="1280" width="260" height="90" as="geometry"/>
                </mxCell>
                <mxCell id="rJqn0r7HXvhNdOzZmETf-19" value="&lt;span style=&quot;font-size: 24px;&quot;&gt;SHELL&lt;/span&gt;" style="rounded=0;whiteSpace=wrap;html=1;fillColor=#0050ef;strokeColor=#001DBC;fontColor=#ffffff;shadow=1;fontStyle=1" parent="1" vertex="1">
                    <mxGeometry x="150" y="1160" width="260" height="90" as="geometry"/>
                </mxCell>
                <mxCell id="rJqn0r7HXvhNdOzZmETf-20" value="&lt;font style=&quot;font-size: 24px&quot;&gt;GRAPHICAL SERVER&lt;/font&gt;" style="rounded=0;whiteSpace=wrap;html=1;fillColor=#0050ef;strokeColor=#001DBC;fontColor=#ffffff;shadow=1;fontStyle=1" parent="1" vertex="1">
                    <mxGeometry x="470" y="1160" width="260" height="90" as="geometry"/>
                </mxCell>
                <mxCell id="rJqn0r7HXvhNdOzZmETf-21" value="&lt;font style=&quot;font-size: 24px&quot;&gt;DESKTOP ENVIRONMENT&lt;/font&gt;" style="rounded=0;whiteSpace=wrap;html=1;fillColor=#0050ef;strokeColor=#001DBC;fontColor=#ffffff;shadow=1;fontStyle=1" parent="1" vertex="1">
                    <mxGeometry x="470" y="1050" width="260" height="90" as="geometry"/>
                </mxCell>
                <mxCell id="rJqn0r7HXvhNdOzZmETf-30" value="&lt;span style=&quot;background-color: rgb(0 , 0 , 0)&quot;&gt;&lt;font color=&quot;#ffffff&quot;&gt;LINUX&lt;/font&gt;&lt;/span&gt;" style="text;html=1;strokeColor=none;fillColor=none;align=center;verticalAlign=middle;whiteSpace=wrap;rounded=0;fontSize=24;" parent="1" vertex="1">
                    <mxGeometry x="203.26" y="700" width="180" height="50" as="geometry"/>
                </mxCell>
                <mxCell id="nWxPVs2zFTbiSsFRjAG0-6" style="edgeStyle=orthogonalEdgeStyle;rounded=0;orthogonalLoop=1;jettySize=auto;html=1;entryX=0;entryY=0.75;entryDx=0;entryDy=0;" parent="1" source="nWxPVs2zFTbiSsFRjAG0-1" target="nWxPVs2zFTbiSsFRjAG0-5" edge="1">
                    <mxGeometry relative="1" as="geometry"/>
                </mxCell>
                <mxCell id="nWxPVs2zFTbiSsFRjAG0-7" style="edgeStyle=orthogonalEdgeStyle;rounded=0;orthogonalLoop=1;jettySize=auto;html=1;entryX=-0.019;entryY=0.656;entryDx=0;entryDy=0;entryPerimeter=0;" parent="1" source="nWxPVs2zFTbiSsFRjAG0-1" target="nWxPVs2zFTbiSsFRjAG0-4" edge="1">
                    <mxGeometry relative="1" as="geometry"/>
                </mxCell>
                <mxCell id="nWxPVs2zFTbiSsFRjAG0-1" value="&lt;font style=&quot;font-size: 24px&quot;&gt;APPLICATION&lt;/font&gt;" style="rounded=0;whiteSpace=wrap;html=1;fillColor=#0050ef;strokeColor=#001DBC;fontColor=#ffffff;shadow=1;fontStyle=1" parent="1" vertex="1">
                    <mxGeometry x="-40" y="2230" width="260" height="90" as="geometry"/>
                </mxCell>
                <mxCell id="nWxPVs2zFTbiSsFRjAG0-3" style="edgeStyle=orthogonalEdgeStyle;rounded=0;orthogonalLoop=1;jettySize=auto;html=1;" parent="1" source="nWxPVs2zFTbiSsFRjAG0-2" target="nWxPVs2zFTbiSsFRjAG0-1" edge="1">
                    <mxGeometry relative="1" as="geometry"/>
                </mxCell>
                <mxCell id="nWxPVs2zFTbiSsFRjAG0-2" value="&lt;font style=&quot;font-size: 24px&quot;&gt;INPUT&lt;/font&gt;" style="rounded=0;whiteSpace=wrap;html=1;fillColor=#0050ef;strokeColor=#001DBC;fontColor=#ffffff;shadow=1;fontStyle=1" parent="1" vertex="1">
                    <mxGeometry x="-450" y="2230" width="260" height="90" as="geometry"/>
                </mxCell>
                <mxCell id="nWxPVs2zFTbiSsFRjAG0-4" value="&lt;font style=&quot;font-size: 24px&quot;&gt;ERROR&lt;/font&gt;" style="rounded=0;whiteSpace=wrap;html=1;fillColor=#0050ef;strokeColor=#001DBC;fontColor=#ffffff;shadow=1;fontStyle=1" parent="1" vertex="1">
                    <mxGeometry x="410" y="2320" width="260" height="90" as="geometry"/>
                </mxCell>
                <mxCell id="nWxPVs2zFTbiSsFRjAG0-5" value="&lt;font style=&quot;font-size: 24px&quot;&gt;OUTPUT&lt;/font&gt;" style="rounded=0;whiteSpace=wrap;html=1;fillColor=#0050ef;strokeColor=#001DBC;fontColor=#ffffff;shadow=1;fontStyle=1" parent="1" vertex="1">
                    <mxGeometry x="410" y="2100" width="260" height="90" as="geometry"/>
                </mxCell>
                <mxCell id="TFoqkKzZm7GSyr_mBAFi-2" value="&lt;font style=&quot;font-size: 24px&quot;&gt;HARDWARE&lt;/font&gt;" style="rounded=0;whiteSpace=wrap;html=1;fillColor=#60a917;strokeColor=#2D7600;fontColor=#ffffff;shadow=1;fontStyle=1" parent="1" vertex="1">
                    <mxGeometry x="-400" y="190" width="260" height="90" as="geometry"/>
                </mxCell>
                <mxCell id="TFoqkKzZm7GSyr_mBAFi-3" value="&lt;span style=&quot;font-size: 24px&quot;&gt;OPERATING SYSTEM&lt;/span&gt;" style="rounded=0;whiteSpace=wrap;html=1;fillColor=#0050ef;strokeColor=#001DBC;fontColor=#ffffff;fontStyle=1" parent="1" vertex="1">
                    <mxGeometry x="-400" y="80" width="260" height="90" as="geometry"/>
                </mxCell>
                <mxCell id="TFoqkKzZm7GSyr_mBAFi-7" value="&lt;span style=&quot;font-size: 24px&quot;&gt;VIRTUAL MACHINES&lt;/span&gt;" style="rounded=0;whiteSpace=wrap;html=1;fillColor=#0050ef;strokeColor=#001DBC;fontColor=#ffffff;fontStyle=1" parent="1" vertex="1">
                    <mxGeometry x="-400" y="-30" width="260" height="90" as="geometry"/>
                </mxCell>
                <mxCell id="TFoqkKzZm7GSyr_mBAFi-8" value="&lt;span style=&quot;font-size: 24px&quot;&gt;CONTAINERS&lt;/span&gt;" style="rounded=0;whiteSpace=wrap;html=1;fillColor=#0050ef;strokeColor=#001DBC;fontColor=#ffffff;fontStyle=1" parent="1" vertex="1">
                    <mxGeometry x="-110" y="-30" width="260" height="90" as="geometry"/>
                </mxCell>
                <mxCell id="TFoqkKzZm7GSyr_mBAFi-9" value="&lt;span style=&quot;font-size: 24px&quot;&gt;WSL&lt;/span&gt;" style="rounded=0;whiteSpace=wrap;html=1;fillColor=#0050ef;strokeColor=#001DBC;fontColor=#ffffff;fontStyle=1" parent="1" vertex="1">
                    <mxGeometry x="180" y="-30" width="260" height="90" as="geometry"/>
                </mxCell>
                <mxCell id="2" value="&lt;span style=&quot;font-size: 30px;&quot;&gt;I/O&lt;/span&gt;" style="text;html=1;strokeColor=none;fillColor=none;align=center;verticalAlign=middle;whiteSpace=wrap;rounded=0;shadow=1;labelBackgroundColor=#230AFF;fontColor=#FFFFFF;fontStyle=1" vertex="1" parent="1">
                    <mxGeometry x="-80" y="1990" width="180" height="70" as="geometry"/>
                </mxCell>
                <mxCell id="3" value="&lt;font style=&quot;font-size: 24px&quot;&gt;HARDWARE&lt;/font&gt;" style="rounded=0;whiteSpace=wrap;html=1;fillColor=#60a917;strokeColor=#2D7600;fontColor=#ffffff;shadow=1;fontStyle=1" vertex="1" parent="1">
                    <mxGeometry x="-110" y="190" width="260" height="90" as="geometry"/>
                </mxCell>
                <mxCell id="4" value="&lt;span style=&quot;font-size: 24px&quot;&gt;OPERATING SYSTEM&lt;/span&gt;" style="rounded=0;whiteSpace=wrap;html=1;fillColor=#60a917;strokeColor=#2D7600;fontColor=#ffffff;fontStyle=1" vertex="1" parent="1">
                    <mxGeometry x="-110" y="80" width="260" height="90" as="geometry"/>
                </mxCell>
                <mxCell id="5" value="&lt;font style=&quot;font-size: 24px&quot;&gt;HARDWARE&lt;/font&gt;" style="rounded=0;whiteSpace=wrap;html=1;fillColor=#60a917;strokeColor=#2D7600;fontColor=#ffffff;shadow=1;fontStyle=1" vertex="1" parent="1">
                    <mxGeometry x="180" y="190" width="260" height="90" as="geometry"/>
                </mxCell>
                <mxCell id="6" value="&lt;span style=&quot;font-size: 24px&quot;&gt;OPERATING SYSTEM&lt;/span&gt;" style="rounded=0;whiteSpace=wrap;html=1;fillColor=#60a917;strokeColor=#2D7600;fontColor=#ffffff;fontStyle=1" vertex="1" parent="1">
                    <mxGeometry x="180" y="80" width="260" height="90" as="geometry"/>
                </mxCell>
            </root>
        </mxGraphModel>
    </diagram>
</mxfile>